Coordinates
version=1
nRows=9
nColumns=63
inDegrees=yes

Units are S.I. units (second, meters, Newtons, ...)
If the header above contains a line with 'inDegrees', this indicates whether rotational values are in degrees (yes) or radians (no).

endheader
time	pelvis_tilt	pelvis_list	pelvis_rotation	pelvis_tx	pelvis_ty	pelvis_tz	hip_flexion_r	hip_adduction_r	hip_rotation_r	knee_angle_r	knee_angle_r_beta	ankle_angle_r	subtalar_angle_r	mtp_angle_r	hip_flexion_l	hip_adduction_l	hip_rotation_l	knee_angle_l	knee_angle_l_beta	ankle_angle_l	subtalar_angle_l	mtp_angle_l	L5_S1_Flex_Ext	L5_S1_Lat_Bending	L5_S1_axial_rotation	L4_L5_Flex_Ext	L4_L5_Lat_Bending	L4_L5_axial_rotation	L3_L4_Flex_Ext	L3_L4_Lat_Bending	L3_L4_axial_rotation	L2_L3_Flex_Ext	L2_L3_Lat_Bending	L2_L3_axial_rotation	L1_L2_Flex_Ext	L1_L2_Lat_Bending	L1_L2_axial_rotation	L1_T12_Flex_Ext	L1_T12_Lat_Bending	L1_T12_axial_rotation	Abs_r3	Abs_r2	Abs_r1	Abs_t1	Abs_t2	neck_flexion	neck_bending	neck_rotation	arm_flex_r	arm_add_r	arm_rot_r	elbow_flex_r	pro_sup_r	wrist_flex_r	wrist_dev_r	arm_flex_l	arm_add_l	arm_rot_l	elbow_flex_l	pro_sup_l	wrist_flex_l	wrist_dev_l
      9.49152542	      2.30111666	     -9.59484760	     95.14616349	      0.15118621	      0.99816334	      0.50038536	      3.33721016	      0.59843902	    -11.51773904	      6.89772074	      0.12038794	     38.41706845	     16.72585301	      0.00000000	      6.52102066	     -1.61879960	    -13.05432758	     13.94313653	      0.24335364	     42.69384400	     16.28503660	      0.00000000	     -0.25299557	     -0.19731163	      0.29324822	     -0.46983807	     -0.26242447	      0.31157624	     -0.41564642	     -0.47974351	      0.31157624	     -0.28914864	     -0.47974351	      0.25659219	     -0.23493169	     -0.40235788	      0.23826418	     -0.14456167	     -0.30563572	      0.21993617	     -1.80712206	     -2.23202866	      1.63095863	      0.00000000	      0.00000000	     11.29228647	      0.53644859	      4.87840743	     -3.65835208	    -10.95915276	      4.10223121	     27.50238608	     75.62712357	    -12.38062429	      2.19799608	      9.31871166	    -10.31897837	    123.16464544	      7.22782354	      7.20646046	    -10.54857822	    -17.32052856
      9.50847458	      2.27961560	     -9.62959616	     95.12696664	      0.15030495	      0.99836882	      0.50036435	      3.31685232	      0.51727258	    -11.45845606	      6.88775049	      0.12021392	     38.39297662	     16.75783041	      0.00000000	      6.52848930	     -1.53952967	    -13.15954446	     13.94456552	      0.24337858	     42.70768636	     16.22756463	      0.00000000	     -0.24851286	     -0.18682337	      0.27623955	     -0.46151324	     -0.24847508	      0.29350452	     -0.40828178	     -0.45424234	      0.29350452	     -0.28402535	     -0.45424234	      0.24170961	     -0.23076905	     -0.38097021	      0.22444464	     -0.14200025	     -0.28938940	      0.20717966	     -1.77510254	     -2.11338331	      1.53636152	      0.00000000	      0.00000000	     11.30305846	      0.59824581	      4.86071488	     -3.71746672	    -10.95147871	      4.10415126	     27.50722441	     75.61840886	    -12.35896889	      2.23980476	      9.45639174	    -10.26298261	    123.18552498	      7.23415587	      7.23321169	    -10.60879587	    -17.36693349
      9.52542373	      2.19103378	     -9.66638342	     94.70837694	      0.15022303	      0.99843483	      0.50026008	      3.27334059	      0.43587993	    -10.73306101	      6.74307698	      0.11768890	     38.25122340	     16.44218952	      0.00000000	      6.49074397	     -1.49535709	    -13.97998633	     14.03896885	      0.24502623	     42.67078668	     16.46784086	      0.00000000	     -0.24721442	     -0.19054585	      0.34291553	     -0.45910190	     -0.25342598	      0.36434775	     -0.40614857	     -0.46329317	      0.36434775	     -0.28254136	     -0.46329317	      0.30005109	     -0.22956331	     -0.38856109	      0.27861887	     -0.14125832	     -0.29515552	      0.25718665	     -1.76582787	     -2.15549272	      1.90719331	      0.00000000	      0.00000000	     11.46381298	      1.22160464	      4.64146038	     -3.91297436	    -10.86085579	      3.32260599	     27.92769962	     75.98606943	    -11.53005390	      3.33620092	      9.70718442	    -10.38750517	    123.87810903	      7.86113388	      8.10520080	    -13.00971901	    -17.48479396
      9.54237288	      2.07855935	     -9.71153047	     94.46730905	      0.14992751	      0.99850409	      0.50013743	      3.29153860	      0.28692049	    -10.47278738	      6.76351678	      0.11804564	     38.22446865	     16.42153787	      0.00000000	      6.45570081	     -1.36778932	    -14.41874065	     14.04777247	      0.24517988	     42.39524622	     16.37674449	      0.00000000	     -0.24159056	     -0.19863359	      0.37988254	     -0.44865783	     -0.26418268	      0.40362520	     -0.39690913	     -0.48295772	      0.40362520	     -0.27611385	     -0.48295772	      0.33239722	     -0.22434099	     -0.40505362	      0.30865456	     -0.13804485	     -0.30768344	      0.28491191	     -1.72565721	     -2.24698293	      2.11279272	      0.00000000	      0.00000000	     11.55038597	      1.42504384	      3.89549169	     -3.97805533	    -10.91426321	      3.78850707	     27.99706609	     75.38006804	    -11.24509789	      3.60925863	      9.81573231	    -10.46030835	    124.75403253	      8.05953367	      8.05402259	    -13.13372180	    -17.05858140
      9.55932203	      1.92722261	     -9.72624870	     94.25296897	      0.14964194	      0.99866681	      0.50008488	      3.30913481	      0.09551874	    -10.29453613	      6.85446310	      0.11963295	     38.22574035	     16.41517652	      0.00000000	      6.40675764	     -1.18879162	    -14.74450188	     14.03948417	      0.24503522	     42.02638539	     16.21592895	      0.00000000	     -0.23940995	     -0.21244515	      0.41346429	     -0.44460823	     -0.28255205	      0.43930581	     -0.39332661	     -0.51653914	      0.43930581	     -0.27362164	     -0.51653914	      0.36178126	     -0.22231608	     -0.43321815	      0.33593974	     -0.13679885	     -0.32907754	      0.31009822	     -1.71008137	     -2.40322205	      2.29956437	      0.00000000	      0.00000000	     11.52092528	      1.70010103	      2.94719687	     -3.99713456	    -10.97899777	      4.46185560	     27.96948071	     74.87268231	    -10.97335533	      3.83826627	      9.86762631	    -10.56182812	    125.28298563	      8.25061256	      7.89346713	    -12.72038475	    -16.65587932
      9.57627119	      1.78202168	     -9.71297497	     94.04046822	      0.14932328	      0.99893633	      0.49995388	      3.30870354	     -0.09696830	    -10.17570768	      6.94957718	      0.12129300	     38.23358731	     16.46079923	      0.00000000	      6.32901997	     -1.01267186	    -15.08866312	     14.00260124	      0.24439150	     41.69380148	     16.12459902	      0.00000000	     -0.23913624	     -0.22371815	      0.45627914	     -0.44409991	     -0.29754514	      0.48479659	     -0.39287693	     -0.54394830	      0.48479659	     -0.27330881	     -0.54394830	      0.39924425	     -0.22206191	     -0.45620605	      0.37072680	     -0.13664245	     -0.34653941	      0.34220936	     -1.70812626	     -2.53074443	      2.53768770	      0.00000000	      0.00000000	     11.39494302	      2.00172747	      2.00173021	     -4.09643099	    -11.01269980	      4.77319750	     28.00099189	     74.81802383	    -10.68572542	      4.07533569	      9.87021060	    -10.58538929	    125.74365752	      8.25546648	      7.68996740	    -11.96044413	    -16.40311810
      9.59322034	      1.71002347	     -9.66597143	     94.15387337	      0.14857565	      0.99932599	      0.49981563	      3.22736360	     -0.22224710	    -10.46474771	      6.96732240	      0.12160272	     38.19380966	     16.58397043	      0.00000000	      6.30030415	     -0.87331329	    -14.94688597	     14.00902180	      0.24450356	     41.48336384	     15.94295612	      0.00000000	     -0.24056624	     -0.22440723	      0.45223439	     -0.44675557	     -0.29846162	      0.48049904	     -0.39522628	     -0.54562374	      0.48049904	     -0.27494316	     -0.54562374	      0.39570509	     -0.22338981	     -0.45761122	      0.36744044	     -0.13745955	     -0.34760680	      0.33917579	     -1.71834060	     -2.53853946	      2.51519201	      0.00000000	      0.00000000	     11.06057115	      2.38858067	      1.17780871	     -4.19760440	    -11.10108708	      5.20167305	     28.00207849	     74.30726490	    -10.56969390	      4.12779268	      9.83178195	    -10.59627946	    124.71919093	      8.35988640	      8.28420859	    -11.56740185	    -16.54144472
      9.61016949	      1.59673109	     -9.59222551	     93.92327542	      0.14823655	      0.99992212	      0.49971181	      3.25915362	     -0.39554877	    -10.45323062	      7.19560936	      0.12558708	     38.18011398	     16.64409920	      0.00000000	      6.14768322	     -0.70808236	    -15.14833414	     13.83174937	      0.24140957	     41.31502998	     15.92730665	      0.00000000	     -0.24505130	     -0.22668186	      0.51219531	     -0.45508476	     -0.30148688	      0.54420752	     -0.40259478	     -0.55115428	      0.54420752	     -0.28006913	     -0.55115428	      0.44817090	     -0.22755463	     -0.46224966	      0.41615869	     -0.14002231	     -0.35113021	      0.38414648	     -1.75037691	     -2.56427058	      2.84867667	      0.00000000	      0.00000000	     10.56192013	      2.80201528	      0.69004402	     -4.23841430	    -11.17403721	      5.52514738	     27.92681963	     73.55766883	    -10.63603781	      4.11046490	      9.90219421	    -10.31765143	    127.60183872	      7.70559407	      5.89504308	    -10.59214639	    -16.86077089
      9.62711864	      1.54953750	     -9.55311450	     93.90095929	      0.14757496	      1.00046802	      0.50014111	      3.27654323	     -0.50445939	    -10.53474338	      7.23603108	      0.12629257	     38.00113326	     16.59814351	      0.00000000	      6.17223177	     -0.60821321	    -15.10078146	     13.81712267	      0.24115428	     41.29500979	     15.97650525	      0.00000000	     -0.25443466	     -0.21397308	      0.52280202	     -0.47251061	     -0.28458420	      0.55547714	     -0.41801070	     -0.52025415	      0.55547714	     -0.29079337	     -0.52025415	      0.45745177	     -0.23626803	     -0.43633391	      0.42477664	     -0.14538396	     -0.33144430	      0.39210151	     -1.81740133	     -2.42050628	      2.90766799	      0.00000000	      0.00000000	     10.29735597	      2.89738167	      0.65581481	     -4.20664663	    -11.28477235	      5.48592729	     27.90785846	     73.54945653	    -10.66303101	      4.09992454	     10.12226799	    -10.14345505	    127.56075219	      7.60310406	      5.86549525	    -10.58574522	    -16.97400493
